<?xml version="1.0" encoding="UTF-8"?>
<svg id="Capa_1" data-name="Capa 1" xmlns="http://www.w3.org/2000/svg" viewBox="0 0 420.94 297.64">
  <defs>
    <style>
      .cls-1 {
        fill: #333332;
      }

      .cls-2 {
        fill: #cb6c88;
      }

      .cls-3 {
        stroke: #cb6c88;
        stroke-linecap: round;
        stroke-linejoin: round;
        stroke-width: 7.4px;
      }

      .cls-3, .cls-4 {
        fill: none;
      }
    </style>
  </defs>
  <rect class="cls-4" width="420.94" height="297.64"/>
  <g>
    <g>
      <path class="cls-2" d="M68.06,145.91c-6.24,0-11.19-1.77-14.85-5.3-3.66-3.53-5.48-8.64-5.48-15.32v-11.99c0-6.68,1.83-11.79,5.48-15.32s8.61-5.3,14.85-5.3,10.88,1.71,14.22,5.12c3.34,3.41,5.01,8.07,5.01,13.97v.44h-7.82v-.66c0-3.46-.94-6.29-2.82-8.48-1.88-2.19-4.74-3.29-8.59-3.29s-6.95,1.18-9.14,3.55c-2.2,2.37-3.29,5.64-3.29,9.84v12.29c0,4.15,1.1,7.41,3.29,9.8,2.19,2.39,5.24,3.58,9.14,3.58s6.72-1.11,8.59-3.33c1.88-2.22,2.82-5.03,2.82-8.45v-1.24h7.82v1.02c0,5.9-1.67,10.56-5.01,13.97-3.34,3.41-8.08,5.12-14.22,5.12Z"/>
      <path class="cls-2" d="M113.19,145.91c-3.61,0-6.81-.74-9.62-2.23-2.8-1.49-5.01-3.62-6.62-6.4-1.61-2.78-2.41-6.07-2.41-9.87v-1.1c0-3.8.8-7.08,2.41-9.84,1.61-2.75,3.81-4.89,6.62-6.4,2.8-1.51,6.01-2.27,9.62-2.27s6.83.76,9.65,2.27c2.83,1.51,5.05,3.65,6.65,6.4,1.61,2.75,2.41,6.03,2.41,9.84v1.1c0,3.8-.8,7.09-2.41,9.87-1.61,2.78-3.83,4.91-6.65,6.4-2.83,1.49-6.05,2.23-9.65,2.23ZM113.19,139.18c3.32,0,6.01-1.06,8.08-3.18s3.11-5.06,3.11-8.81v-.66c0-3.75-1.02-6.69-3.07-8.81-2.05-2.12-4.75-3.18-8.12-3.18s-5.94,1.06-8.01,3.18c-2.07,2.12-3.11,5.06-3.11,8.81v.66c0,3.75,1.04,6.69,3.11,8.81s4.74,3.18,8.01,3.18Z"/>
      <path class="cls-2" d="M141.27,144.88v-36.05h7.38v4.24h1.17c.68-1.27,1.78-2.39,3.29-3.36,1.51-.97,3.56-1.46,6.14-1.46s4.84.55,6.47,1.65c1.63,1.1,2.86,2.5,3.69,4.21h1.17c.83-1.66,2.04-3.05,3.62-4.17,1.58-1.12,3.84-1.68,6.77-1.68,2.34,0,4.41.47,6.22,1.43,1.8.95,3.24,2.37,4.31,4.24,1.07,1.88,1.61,4.21,1.61,6.98v23.99h-7.53v-23.4c0-2.19-.6-3.89-1.79-5.08-1.2-1.19-2.89-1.79-5.08-1.79-2.34,0-4.22.76-5.63,2.27-1.41,1.51-2.12,3.68-2.12,6.51v21.5h-7.53v-23.4c0-2.19-.6-3.89-1.79-5.08-1.2-1.19-2.89-1.79-5.08-1.79-2.34,0-4.22.76-5.63,2.27-1.41,1.51-2.12,3.68-2.12,6.51v21.5h-7.53Z"/>
      <path class="cls-2" d="M215.13,145.91c-2.59,0-4.89-.44-6.91-1.32-2.02-.88-3.63-2.17-4.83-3.88-1.2-1.71-1.79-3.78-1.79-6.22s.6-4.55,1.79-6.18c1.19-1.63,2.83-2.86,4.9-3.69s4.43-1.24,7.06-1.24h10.97v-2.34c0-2.1-.63-3.78-1.9-5.05-1.27-1.27-3.22-1.9-5.85-1.9s-4.56.61-5.92,1.83c-1.37,1.22-2.27,2.8-2.71,4.75l-7.02-2.27c.59-1.95,1.52-3.72,2.82-5.3,1.29-1.58,3.01-2.86,5.16-3.84,2.14-.97,4.73-1.46,7.75-1.46,4.68,0,8.36,1.2,11.04,3.58,2.68,2.39,4.02,5.78,4.02,10.17v14.85c0,1.46.68,2.19,2.05,2.19h3.07v6.29h-5.63c-1.71,0-3.1-.44-4.17-1.32s-1.61-2.07-1.61-3.58v-.22h-1.1c-.39.73-.98,1.58-1.76,2.56-.78.98-1.93,1.82-3.44,2.52-1.51.71-3.51,1.06-6,1.06ZM216.23,139.69c3.02,0,5.46-.87,7.31-2.6,1.85-1.73,2.78-4.11,2.78-7.13v-.73h-10.53c-2,0-3.61.43-4.83,1.28-1.22.85-1.83,2.11-1.83,3.77s.63,2.97,1.9,3.95c1.27.98,3,1.46,5.19,1.46Z"/>
      <path class="cls-2" d="M246.14,144.88v-36.05h7.38v5.41h1.17c.68-1.46,1.9-2.83,3.66-4.09,1.75-1.27,4.36-1.9,7.82-1.9,2.73,0,5.16.61,7.28,1.83s3.79,2.94,5.01,5.16c1.22,2.22,1.83,4.89,1.83,8.01v21.65h-7.53v-21.06c0-3.12-.78-5.42-2.34-6.91-1.56-1.49-3.71-2.23-6.44-2.23-3.12,0-5.62,1.02-7.5,3.07s-2.82,5.02-2.82,8.92v18.21h-7.53Z"/>
      <path class="cls-2" d="M306.04,145.91c-2.97,0-5.73-.73-8.26-2.19s-4.57-3.57-6.11-6.33c-1.54-2.75-2.3-6.08-2.3-9.98v-1.1c0-3.85.76-7.17,2.27-9.95,1.51-2.78,3.53-4.9,6.07-6.36,2.53-1.46,5.31-2.19,8.34-2.19,2.34,0,4.3.29,5.89.88,1.58.58,2.89,1.33,3.91,2.23,1.02.9,1.8,1.84,2.34,2.82h1.17v-20.04h7.53v51.19h-7.39v-5.12h-1.17c-.93,1.56-2.33,2.97-4.21,4.24-1.88,1.27-4.57,1.9-8.08,1.9ZM308.16,139.33c3.27,0,5.96-1.05,8.08-3.14,2.12-2.1,3.18-5.09,3.18-9v-.66c0-3.85-1.05-6.83-3.15-8.92-2.1-2.1-4.8-3.14-8.12-3.14s-5.89,1.05-8.01,3.14c-2.12,2.1-3.18,5.07-3.18,8.92v.66c0,3.9,1.06,6.9,3.18,9,2.12,2.1,4.79,3.14,8.01,3.14Z"/>
      <path class="cls-2" d="M349.19,145.91c-2.59,0-4.89-.44-6.91-1.32-2.02-.88-3.63-2.17-4.83-3.88-1.2-1.71-1.79-3.78-1.79-6.22s.6-4.55,1.79-6.18c1.19-1.63,2.83-2.86,4.9-3.69s4.43-1.24,7.06-1.24h10.97v-2.34c0-2.1-.63-3.78-1.9-5.05-1.27-1.27-3.22-1.9-5.85-1.9s-4.56.61-5.92,1.83c-1.37,1.22-2.27,2.8-2.71,4.75l-7.02-2.27c.59-1.95,1.52-3.72,2.82-5.3,1.29-1.58,3.01-2.86,5.16-3.84,2.14-.97,4.73-1.46,7.75-1.46,4.68,0,8.36,1.2,11.04,3.58,2.68,2.39,4.02,5.78,4.02,10.17v14.85c0,1.46.68,2.19,2.05,2.19h3.07v6.29h-5.63c-1.71,0-3.1-.44-4.17-1.32s-1.61-2.07-1.61-3.58v-.22h-1.1c-.39.73-.98,1.58-1.76,2.56-.78.98-1.93,1.82-3.44,2.52-1.51.71-3.51,1.06-6,1.06ZM350.28,139.69c3.02,0,5.46-.87,7.31-2.6,1.85-1.73,2.78-4.11,2.78-7.13v-.73h-10.53c-2,0-3.61.43-4.83,1.28-1.22.85-1.83,2.11-1.83,3.77s.63,2.97,1.9,3.95c1.27.98,3,1.46,5.19,1.46Z"/>
    </g>
    <g>
      <path class="cls-3" d="M24.32,119.26c0-24.02,19.47-43.5,43.5-43.5h231.81s51.09,0,51.09,0c25.35,0,45.9,20.55,45.9,45.9h0c0,25.35-20.55,45.9-45.9,45.9h-174.07"/>
      <line class="cls-3" x1="24.32" y1="220.58" x2="24.32" y2="119.26"/>
    </g>
    <g>
      <g>
        <path class="cls-1" d="M44.61,217.97h3.37v-18.04h-3.37v-3.41h9.94c6.6,0,10.26,3.34,10.26,10.12v4.65c0,6.75-3.66,10.08-10.26,10.08h-9.94v-3.41ZM54.58,217.9c4.26,0,6.39-2.17,6.39-6.5v-4.9c0-4.33-2.13-6.46-6.39-6.46h-2.77v17.86h2.77Z"/>
        <path class="cls-1" d="M69.14,196.53h10.44c4.62,0,7.78,2.56,7.78,6.64v.39c0,3.12-1.7,4.93-3.83,5.72v.57c1.81.11,2.98,1.24,2.98,3.3v8.24h-3.83v-7.7c0-1.28-.64-2.09-2.13-2.09h-7.56v9.8h-3.83v-24.85ZM79.15,208.1c2.73,0,4.33-1.46,4.33-3.91v-.28c0-2.41-1.53-3.91-4.33-3.91h-6.18v8.09h6.18Z"/>
        <path class="cls-1" d="M96.83,196.53h6.75l7.07,24.85h-3.94l-1.63-5.86h-9.73l-1.63,5.86h-3.94l7.07-24.85ZM104.11,211.97l-3.62-13.07h-.57l-3.62,13.07h7.81Z"/>
      </g>
      <g>
        <path class="cls-1" d="M112.84,213.25v-.89h3.8v.89c0,3.55,2.27,5.25,5.79,5.25s5.36-1.67,5.36-4.01-1.99-3.2-5.25-3.94l-1.31-.32c-4.79-1.1-7.81-2.8-7.81-7.17s3.44-7.03,8.59-7.03,9.02,2.66,9.02,7.88v1.28h-3.8v-1.28c0-3.2-2.09-4.51-5.22-4.51s-4.79,1.31-4.79,3.55,1.67,3.16,4.83,3.87l1.31.32c4.79,1.06,8.24,2.8,8.24,7.28s-3.59,7.46-9.16,7.46-9.59-3.05-9.59-8.63Z"/>
        <path class="cls-1" d="M134.5,213.25v-.89h3.8v.89c0,3.55,2.27,5.25,5.79,5.25s5.36-1.67,5.36-4.01-1.99-3.2-5.25-3.94l-1.31-.32c-4.79-1.1-7.81-2.8-7.81-7.17s3.44-7.03,8.59-7.03,9.02,2.66,9.02,7.88v1.28h-3.8v-1.28c0-3.2-2.09-4.51-5.22-4.51s-4.79,1.31-4.79,3.55,1.67,3.16,4.83,3.87l1.31.32c4.79,1.06,8.24,2.8,8.24,7.28s-3.59,7.46-9.16,7.46-9.59-3.05-9.59-8.63Z"/>
        <path class="cls-1" d="M162.51,196.53h6.75l7.07,24.85h-3.94l-1.63-5.86h-9.73l-1.63,5.86h-3.94l7.07-24.85ZM169.79,211.97l-3.62-13.07h-.57l-3.62,13.07h7.81Z"/>
      </g>
      <g>
        <path class="cls-1" d="M179.69,196.53h7.38l6.75,22.3h.57v-22.3h3.8v24.85h-7.38l-6.75-22.33h-.57v22.33h-3.8v-24.85Z"/>
        <path class="cls-1" d="M208.63,196.53h6.75l7.07,24.85h-3.94l-1.63-5.86h-9.73l-1.63,5.86h-3.94l7.07-24.85ZM215.91,211.97l-3.62-13.07h-.57l-3.62,13.07h7.81Z"/>
      </g>
    </g>
  </g>
</svg>